# File created by Blade
# Date/Time:  Thu Sep 25 15:31:15 2014
# Frame Rate: 120.000 fps
#------------------------------------------------------
:FULLY-SPECIFIED
:DEGREES
590
root -15.119540 35.605109 -0.861168 208.172529 -64.462251 -8.738169
Spine -37.971260 15.659742 -3.214745
Head -90.085183 10.331507 -2.505216
LeftShoulder -21.869088 14.391878 14.440556
LeftArm 142.986759 -56.026216 -94.875963
LeftForeArm 11.289299 -0.000000 29.274406
LeftHand -42.115216 0.000000 88.098596
LeftHandThumb1 -26.253704 0.000000 33.147579
RightShoulder -14.810417 22.180589 -29.248987
RightArm 99.389248 40.400952 56.286537
RightForeArm -11.606208 0.000000 33.676837
RightHand -7.178890 -0.000000 -78.367920
RightHandThumb1 -24.326973 -0.000000 -32.862282
LeftUpLeg -61.405234 30.217837 29.584799
LeftLeg 6.978784 -0.000000 -0.000000
LeftFoot 34.586014 30.005493 -6.700468
LeftToeBase 10.431698 -0.000000 -0.000000
RightUpLeg 24.618425 8.134965 -30.801014
RightLeg 37.972476 -0.000000 -0.000000
RightFoot 39.302110 -7.405374 0.683900
RightToeBase 12.592090 -0.000000 -0.000000
591
root -15.154567 35.623145 -0.875604 207.886442 -64.710713 -8.664901
Spine -37.566251 15.615904 -2.940069
Head -90.095748 10.255014 -2.742555
LeftShoulder -22.029904 14.364542 14.406481
LeftArm 142.655452 -55.825166 -94.791752
LeftForeArm 11.249517 -0.000000 29.395592
LeftHand -42.121640 0.000000 88.047939
LeftHandThumb1 -26.253704 0.000000 33.147579
RightShoulder -14.817462 22.202463 -29.287051
RightArm 99.576383 40.409938 56.274596
RightForeArm -11.683235 -0.000000 33.596126
RightHand -7.191579 0.000000 -78.461769
RightHandThumb1 -24.326973 -0.000000 -32.862282
LeftUpLeg -61.542475 30.188561 29.610822
LeftLeg 6.973548 -0.000000 -0.000000
LeftFoot 34.598360 29.914628 -6.597737
LeftToeBase 10.320381 -0.000000 -0.000000
RightUpLeg 24.376292 8.511394 -30.557439
RightLeg 41.233579 -0.000000 -0.000000
RightFoot 39.180904 -7.558516 1.913038
RightToeBase 12.985298 -0.000000 -0.000000
592
root -15.187063 35.643613 -0.887745 207.658510 -64.956092 -8.633082
Spine -37.198266 15.598764 -2.728669
Head -90.058723 10.118257 -2.910883
LeftShoulder -22.145111 14.312449 14.385244
LeftArm 142.286658 -55.821144 -94.544811
LeftForeArm 10.981523 -0.000000 29.342579
LeftHand -42.038528 -0.000000 88.293836
LeftHandThumb1 -26.253704 0.000000 33.147579
RightShoulder -14.968085 22.319844 -29.464941
RightArm 99.576920 40.307820 56.194041
RightForeArm -11.709834 -0.000000 33.484133
RightHand -7.123011 -0.000000 -78.533474
RightHandThumb1 -24.326973 -0.000000 -32.862282
LeftUpLeg -61.696368 30.148000 29.648906
LeftLeg 6.943138 -0.000000 -0.000000
LeftFoot 34.727844 29.730100 -6.216085
LeftToeBase 10.487159 -0.000000 -0.000000
RightUpLeg 24.187148 8.897721 -30.355711
RightLeg 44.432688 -0.000000 -0.000000
RightFoot 39.445875 -7.529750 3.160293
RightToeBase 13.248746 -0.000000 -0.000000
593
root -15.214887 35.670502 -0.914400 207.327358 -65.308005 -8.535902
Spine -36.818659 15.467444 -2.461463
Head -89.956882 10.071593 -2.968513
LeftShoulder -22.285233 14.261912 14.483187
LeftArm 141.842966 -55.737591 -94.326818
LeftForeArm 10.496655 -0.000000 29.415938
LeftHand -42.211399 0.000000 88.329724
LeftHandThumb1 -26.253704 0.000000 33.147579
RightShoulder -15.021229 22.341226 -29.519235
RightArm 99.582816 40.378183 55.934761
RightForeArm -11.536588 -0.000000 33.268795
RightHand -7.075651 0.000000 -78.675726
RightHandThumb1 -24.326973 -0.000000 -32.862282
LeftUpLeg -61.921291 30.099291 29.677669
LeftLeg 6.921075 -0.000000 -0.000000
LeftFoot 34.793102 29.516474 -6.018188
LeftToeBase 10.485838 -0.000000 -0.000000
RightUpLeg 24.168677 9.120998 -30.048922
RightLeg 47.778073 -0.000000 -0.000000
RightFoot 39.077142 -7.863732 3.900360
RightToeBase 12.712308 -0.000000 -0.000000
594
root -15.225195 35.701430 -0.943337 206.975221 -65.715584 -8.538451
Spine -36.338394 15.297568 -2.190317
Head -89.876585 9.973139 -3.001675
LeftShoulder -22.444356 14.288094 14.499690
LeftArm 141.424533 -55.781243 -93.941916
LeftForeArm 10.399373 -0.000000 29.183960
LeftHand -42.111191 0.000000 88.463812
LeftHandThumb1 -26.253704 0.000000 33.147579
RightShoulder -15.137062 22.323756 -29.582391
RightArm 99.640527 40.437803 55.676640
RightForeArm -11.321745 -0.000000 32.984273
RightHand -6.948799 -0.000000 -78.763699
RightHandThumb1 -24.326973 -0.000000 -32.862282
LeftUpLeg -62.081825 29.968066 29.690619
LeftLeg 6.834718 -0.000000 -0.000000
LeftFoot 34.713001 29.415691 -6.048351
LeftToeBase 10.592367 -0.000000 -0.000000
RightUpLeg 24.349152 9.288224 -29.771756
RightLeg 51.146945 -0.000000 -0.000000
RightFoot 38.594958 -8.806646 4.483784
RightToeBase 12.250621 -0.000000 -0.000000
595
root -15.244862 35.723831 -0.954479 206.866552 -66.016020 -8.640212
Spine -36.054482 15.206664 -2.060537
Head -89.782455 9.886335 -2.965268
LeftShoulder -22.511138 14.132496 14.592671
LeftArm 140.716153 -55.871770 -93.285404
LeftForeArm 10.096633 -0.000000 28.974878
LeftHand -42.036230 -0.000000 88.626087
LeftHandThumb1 -26.253704 0.000000 33.147579
RightShoulder -15.252011 22.251434 -29.631683
RightArm 99.716175 40.518629 55.391341
RightForeArm -11.120636 -0.000000 32.669263
RightHand -6.910697 -0.000000 -78.896330
RightHandThumb1 -24.326973 -0.000000 -32.862282
LeftUpLeg -62.339427 29.896553 29.638684
LeftLeg 6.768395 -0.000000 -0.000000
LeftFoot 34.620388 29.491852 -6.271050
LeftToeBase 10.157849 -0.000000 -0.000000
RightUpLeg 24.215761 9.321467 -29.727607
RightLeg 54.844433 -0.000000 -0.000000
RightFoot 37.874034 -9.341387 4.168699
RightToeBase 13.067479 -0.000000 -0.000000
596
root -15.270429 35.748531 -0.967364 206.654868 -66.279560 -8.624586
Spine -35.783590 15.151196 -1.893606
Head -89.675059 9.868759 -2.926425
LeftShoulder -22.498756 14.035868 14.665126
LeftArm 140.154603 -56.067351 -92.739913
LeftForeArm 9.737880 -0.000000 28.767728
LeftHand -42.020653 -0.000000 88.834958
LeftHandThumb1 -26.253704 0.000000 33.147579
RightShoulder -15.320160 22.214885 -29.713961
RightArm 99.764519 40.537337 55.235636
RightForeArm -11.101525 -0.000000 32.423773
RightHand -6.893141 0.000000 -78.976935
RightHandThumb1 -24.326973 -0.000000 -32.862282
LeftUpLeg -62.646849 29.913671 29.548443
LeftLeg 6.704904 -0.000000 -0.000000
LeftFoot 34.674458 29.242902 -5.881654
LeftToeBase 10.605696 -0.000000 -0.000000
RightUpLeg 24.150272 9.272168 -29.715166
RightLeg 58.295245 -0.000000 -0.000000
RightFoot 37.753545 -10.863061 3.630435
RightToeBase 12.519708 -0.000000 -0.000000
597
root -15.291298 35.766251 -0.972567 206.551832 -66.493063 -8.662950
Spine -35.610247 15.174365 -1.793309
Head -89.582829 9.766494 -2.901205
LeftShoulder -22.376133 13.768885 14.844537
LeftArm 139.275675 -56.179136 -92.054466
LeftForeArm 9.529106 -0.000000 28.674669
LeftHand -42.093561 -0.000000 89.055062
LeftHandThumb1 -26.253704 0.000000 33.147579
RightShoulder -15.549419 22.267549 -29.994403
RightArm 99.662175 40.325448 55.162346
RightForeArm -10.824429 0.000000 32.325183
RightHand -6.813899 0.000000 -79.089594
RightHandThumb1 -24.326973 -0.000000 -32.862282
LeftUpLeg -63.000839 29.976157 29.381989
LeftLeg 6.638002 -0.000000 -0.000000
LeftFoot 34.624060 29.325654 -6.060963
LeftToeBase 9.999664 -0.000000 -0.000000
RightUpLeg 23.896450 9.513022 -29.655062
RightLeg 62.114523 -0.000000 -0.000000
RightFoot 37.235298 -12.342810 4.101827
RightToeBase 12.649107 -0.000000 -0.000000
